<mxfile host="app.diagrams.net" modified="2024-01-29T01:38:55.124Z" agent="Mozilla/5.0 (Windows NT 10.0; Win64; x64) AppleWebKit/537.36 (KHTML, like Gecko) Chrome/120.0.0.0 Safari/537.36 OPR/106.0.0.0" etag="X3TcDOBXqvNcNjTg-_76" version="23.0.2" type="google">
  <diagram name="Page-1" id="PgDB6es0nTjyBTNLcREV">
    <mxGraphModel grid="1" page="1" gridSize="10" guides="1" tooltips="1" connect="1" arrows="1" fold="1" pageScale="1" pageWidth="850" pageHeight="1100" math="0" shadow="0">
      <root>
        <mxCell id="0" />
        <mxCell id="1" parent="0" />
        <mxCell id="pIbVdamsPdydmhWZnAQt-41" style="edgeStyle=orthogonalEdgeStyle;rounded=0;orthogonalLoop=1;jettySize=auto;html=1;exitX=0.5;exitY=0.5;exitDx=0;exitDy=0;exitPerimeter=0;entryX=0;entryY=0.5;entryDx=0;entryDy=0;" edge="1" parent="1" source="pIbVdamsPdydmhWZnAQt-1" target="pIbVdamsPdydmhWZnAQt-6">
          <mxGeometry relative="1" as="geometry">
            <Array as="points">
              <mxPoint x="240" y="380" />
              <mxPoint x="240" y="540" />
            </Array>
          </mxGeometry>
        </mxCell>
        <mxCell id="pIbVdamsPdydmhWZnAQt-42" style="edgeStyle=orthogonalEdgeStyle;rounded=0;orthogonalLoop=1;jettySize=auto;html=1;exitX=0.5;exitY=0.5;exitDx=0;exitDy=0;exitPerimeter=0;entryX=0;entryY=0.5;entryDx=0;entryDy=0;" edge="1" parent="1" source="pIbVdamsPdydmhWZnAQt-1" target="pIbVdamsPdydmhWZnAQt-33">
          <mxGeometry relative="1" as="geometry">
            <Array as="points">
              <mxPoint x="240" y="380" />
              <mxPoint x="240" y="350" />
            </Array>
          </mxGeometry>
        </mxCell>
        <mxCell id="pIbVdamsPdydmhWZnAQt-43" style="edgeStyle=orthogonalEdgeStyle;rounded=0;orthogonalLoop=1;jettySize=auto;html=1;exitX=0.5;exitY=0.5;exitDx=0;exitDy=0;exitPerimeter=0;entryX=0;entryY=0.5;entryDx=0;entryDy=0;" edge="1" parent="1" source="pIbVdamsPdydmhWZnAQt-1" target="pIbVdamsPdydmhWZnAQt-7">
          <mxGeometry relative="1" as="geometry">
            <Array as="points">
              <mxPoint x="240" y="380" />
              <mxPoint x="240" y="400" />
            </Array>
          </mxGeometry>
        </mxCell>
        <mxCell id="pIbVdamsPdydmhWZnAQt-1" value="Voter" style="shape=umlActor;verticalLabelPosition=bottom;verticalAlign=top;html=1;outlineConnect=0;" vertex="1" parent="1">
          <mxGeometry x="110" y="330" width="60" height="100" as="geometry" />
        </mxCell>
        <mxCell id="pIbVdamsPdydmhWZnAQt-25" style="edgeStyle=orthogonalEdgeStyle;rounded=0;orthogonalLoop=1;jettySize=auto;html=1;exitX=0.5;exitY=0.5;exitDx=0;exitDy=0;exitPerimeter=0;entryX=0.5;entryY=1;entryDx=0;entryDy=0;" edge="1" parent="1" source="pIbVdamsPdydmhWZnAQt-3" target="pIbVdamsPdydmhWZnAQt-6">
          <mxGeometry relative="1" as="geometry">
            <mxPoint x="410" y="609.9999999999999" as="targetPoint" />
            <Array as="points">
              <mxPoint x="425" y="730" />
            </Array>
          </mxGeometry>
        </mxCell>
        <mxCell id="pIbVdamsPdydmhWZnAQt-3" value="Admin&lt;br&gt;" style="shape=umlActor;verticalLabelPosition=bottom;verticalAlign=top;html=1;outlineConnect=0;" vertex="1" parent="1">
          <mxGeometry x="110" y="680" width="60" height="100" as="geometry" />
        </mxCell>
        <mxCell id="pIbVdamsPdydmhWZnAQt-40" value="Extends" style="edgeStyle=orthogonalEdgeStyle;rounded=0;orthogonalLoop=1;jettySize=auto;html=1;exitX=1;exitY=0.5;exitDx=0;exitDy=0;entryX=0;entryY=0.5;entryDx=0;entryDy=0;" edge="1" parent="1" source="pIbVdamsPdydmhWZnAQt-6" target="pIbVdamsPdydmhWZnAQt-13">
          <mxGeometry relative="1" as="geometry" />
        </mxCell>
        <mxCell id="P91AFO2nPXfgUK-U0KPZ-4" value="Admin Account Login" style="edgeStyle=orthogonalEdgeStyle;rounded=0;orthogonalLoop=1;jettySize=auto;html=1;exitX=1;exitY=1;exitDx=0;exitDy=0;" edge="1" parent="1" source="pIbVdamsPdydmhWZnAQt-6" target="pIbVdamsPdydmhWZnAQt-28">
          <mxGeometry relative="1" as="geometry" />
        </mxCell>
        <mxCell id="pIbVdamsPdydmhWZnAQt-6" value="Login" style="ellipse;whiteSpace=wrap;html=1;" vertex="1" parent="1">
          <mxGeometry x="365" y="500" width="120" height="80" as="geometry" />
        </mxCell>
        <mxCell id="pIbVdamsPdydmhWZnAQt-7" value="Vote" style="ellipse;whiteSpace=wrap;html=1;" vertex="1" parent="1">
          <mxGeometry x="540" y="360" width="120" height="80" as="geometry" />
        </mxCell>
        <mxCell id="pIbVdamsPdydmhWZnAQt-11" style="edgeStyle=orthogonalEdgeStyle;rounded=0;orthogonalLoop=1;jettySize=auto;html=1;exitX=0.5;exitY=0;exitDx=0;exitDy=0;exitPerimeter=0;" edge="1" parent="1" source="pIbVdamsPdydmhWZnAQt-8">
          <mxGeometry relative="1" as="geometry">
            <mxPoint x="140" y="450" as="targetPoint" />
          </mxGeometry>
        </mxCell>
        <mxCell id="pIbVdamsPdydmhWZnAQt-8" value="New voter" style="shape=umlActor;verticalLabelPosition=bottom;verticalAlign=top;html=1;outlineConnect=0;" vertex="1" parent="1">
          <mxGeometry x="150" y="540" width="50" height="70" as="geometry" />
        </mxCell>
        <mxCell id="pIbVdamsPdydmhWZnAQt-10" style="edgeStyle=orthogonalEdgeStyle;rounded=0;orthogonalLoop=1;jettySize=auto;html=1;exitX=0.5;exitY=0;exitDx=0;exitDy=0;exitPerimeter=0;" edge="1" parent="1" source="pIbVdamsPdydmhWZnAQt-9">
          <mxGeometry relative="1" as="geometry">
            <mxPoint x="140" y="450" as="targetPoint" />
          </mxGeometry>
        </mxCell>
        <mxCell id="pIbVdamsPdydmhWZnAQt-9" value="Old voter" style="shape=umlActor;verticalLabelPosition=bottom;verticalAlign=top;html=1;outlineConnect=0;" vertex="1" parent="1">
          <mxGeometry x="80" y="540" width="50" height="70" as="geometry" />
        </mxCell>
        <mxCell id="pIbVdamsPdydmhWZnAQt-20" style="edgeStyle=orthogonalEdgeStyle;rounded=0;orthogonalLoop=1;jettySize=auto;html=1;exitX=0.5;exitY=0;exitDx=0;exitDy=0;entryX=0.5;entryY=1;entryDx=0;entryDy=0;" edge="1" parent="1" source="pIbVdamsPdydmhWZnAQt-13" target="pIbVdamsPdydmhWZnAQt-7">
          <mxGeometry relative="1" as="geometry" />
        </mxCell>
        <mxCell id="pIbVdamsPdydmhWZnAQt-13" value="Signup" style="ellipse;whiteSpace=wrap;html=1;" vertex="1" parent="1">
          <mxGeometry x="540" y="500" width="120" height="80" as="geometry" />
        </mxCell>
        <mxCell id="pIbVdamsPdydmhWZnAQt-21" value="View Your Vote" style="ellipse;whiteSpace=wrap;html=1;" vertex="1" parent="1">
          <mxGeometry x="275" y="190" width="120" height="80" as="geometry" />
        </mxCell>
        <mxCell id="pIbVdamsPdydmhWZnAQt-23" value="View Vote Statistics&amp;nbsp;" style="ellipse;whiteSpace=wrap;html=1;" vertex="1" parent="1">
          <mxGeometry x="495" y="190" width="120" height="80" as="geometry" />
        </mxCell>
        <mxCell id="P91AFO2nPXfgUK-U0KPZ-5" value="Extends" style="edgeStyle=orthogonalEdgeStyle;rounded=0;orthogonalLoop=1;jettySize=auto;html=1;exitX=1;exitY=0.5;exitDx=0;exitDy=0;entryX=0;entryY=0.5;entryDx=0;entryDy=0;" edge="1" parent="1" source="pIbVdamsPdydmhWZnAQt-28" target="pIbVdamsPdydmhWZnAQt-30">
          <mxGeometry relative="1" as="geometry" />
        </mxCell>
        <mxCell id="pIbVdamsPdydmhWZnAQt-28" value="Manage published votes" style="ellipse;whiteSpace=wrap;html=1;" vertex="1" parent="1">
          <mxGeometry x="470" y="680" width="120" height="80" as="geometry" />
        </mxCell>
        <mxCell id="pIbVdamsPdydmhWZnAQt-32" style="edgeStyle=orthogonalEdgeStyle;rounded=0;orthogonalLoop=1;jettySize=auto;html=1;exitX=0.5;exitY=0;exitDx=0;exitDy=0;entryX=1;entryY=0.5;entryDx=0;entryDy=0;" edge="1" parent="1" source="pIbVdamsPdydmhWZnAQt-30" target="pIbVdamsPdydmhWZnAQt-7">
          <mxGeometry relative="1" as="geometry" />
        </mxCell>
        <mxCell id="pIbVdamsPdydmhWZnAQt-30" value="Publish Vote" style="ellipse;whiteSpace=wrap;html=1;" vertex="1" parent="1">
          <mxGeometry x="680" y="680" width="120" height="80" as="geometry" />
        </mxCell>
        <mxCell id="pIbVdamsPdydmhWZnAQt-37" value="Extends" style="edgeStyle=orthogonalEdgeStyle;rounded=0;orthogonalLoop=1;jettySize=auto;html=1;exitX=0.5;exitY=0;exitDx=0;exitDy=0;entryX=0.5;entryY=1;entryDx=0;entryDy=0;" edge="1" parent="1" source="pIbVdamsPdydmhWZnAQt-33" target="pIbVdamsPdydmhWZnAQt-21">
          <mxGeometry relative="1" as="geometry" />
        </mxCell>
        <mxCell id="pIbVdamsPdydmhWZnAQt-45" value="Extends" style="edgeStyle=orthogonalEdgeStyle;rounded=0;orthogonalLoop=1;jettySize=auto;html=1;exitX=1;exitY=0.5;exitDx=0;exitDy=0;entryX=0;entryY=0.5;entryDx=0;entryDy=0;" edge="1" parent="1" source="pIbVdamsPdydmhWZnAQt-33" target="pIbVdamsPdydmhWZnAQt-23">
          <mxGeometry relative="1" as="geometry" />
        </mxCell>
        <mxCell id="pIbVdamsPdydmhWZnAQt-33" value="View account" style="ellipse;whiteSpace=wrap;html=1;" vertex="1" parent="1">
          <mxGeometry x="275" y="310" width="120" height="80" as="geometry" />
        </mxCell>
        <mxCell id="D2pf2XEHYSuAqzSyZQgu-1" value="Carter Auer, William Keenan-Harte, Joseph Vennard" style="text;html=1;align=center;verticalAlign=middle;resizable=0;points=[];autosize=1;strokeColor=none;fillColor=none;" vertex="1" parent="1">
          <mxGeometry x="275" y="120" width="300" height="30" as="geometry" />
        </mxCell>
        <mxCell id="D2pf2XEHYSuAqzSyZQgu-3" value="Homomorphic Encryption Voting" style="text;html=1;align=center;verticalAlign=middle;resizable=0;points=[];autosize=1;strokeColor=none;fillColor=none;fontSize=25;" vertex="1" parent="1">
          <mxGeometry x="235" y="70" width="380" height="40" as="geometry" />
        </mxCell>
      </root>
    </mxGraphModel>
  </diagram>
</mxfile>
